<svg id="enlIHxUABDG1" xmlns="http://www.w3.org/2000/svg" xmlns:xlink="http://www.w3.org/1999/xlink" viewBox="0 0 505.731890 436.335420" shape-rendering="geometricPrecision" text-rendering="geometricPrecision"><g id="enlIHxUABDG2"><g id="enlIHxUABDG3"><path id="enlIHxUABDG4" d="M287.279570,417.995000C287.293380,423.629590,287.278090,429.264540,287.345730,434.898470C287.359150,436.016560,287.052240,436.332200,285.925440,436.329970Q259.619690,436.277770,233.313860,436.335390C232.021760,436.338650,231.813400,435.891390,231.813350,434.734000Q231.810680,374.174710,231.722140,313.615480C231.720140,312.296170,232.089580,311.924290,233.400480,311.927810Q259.606700,311.998210,285.813140,311.955160C286.940010,311.953660,287.416340,312.116160,287.414310,313.434370Q287.348840,355.897460,287.373110,398.360700C287.362518,398.492751,287.340879,398.623683,287.308420,398.752120C287.442706,398.989674,287.374781,399.290358,287.151420,399.447120C286.444307,399.816051,285.644053,399.968128,284.850900,399.884300Q278.116380,399.910690,271.381810,399.883530C270.522304,399.988085,269.652417,399.804143,268.908810,399.360600C268.157650,398.295910,268.366700,397.066600,268.365890,395.892250Q268.344890,365.560250,268.355490,335.228190C268.355200,331.461340,268.351760,331.459310,264.688910,331.457310C260.982780,331.455310,257.276600,331.443370,253.570560,331.461980C251.118560,331.474280,250.974560,331.603210,250.971310,334.047510Q250.947310,351.848910,250.969210,369.650340C250.998980,384.434390,250.891500,399.218060,250.895210,414.001960C250.895430,414.900960,250.642210,415.888240,251.499070,416.595310C252.432794,416.944682,253.438638,417.056822,254.426380,416.921670Q269.197950,416.939380,283.969540,416.935590C285.023394,416.802399,286.093817,416.937485,287.081540,417.328320C287.319713,417.458228,287.408204,417.756136,287.279570,417.995000Z" fill="rgb(12,12,12)" stroke="none" stroke-width="1"/><path id="enlIHxUABDG5" d="M287.279570,417.995000L287.254920,417.544590C286.795940,416.969304,286.579374,416.237719,286.651240,415.505290Q286.599120,408.469290,286.650660,401.433220C286.559504,400.703011,286.760273,399.966336,287.209320,399.383350L287.308410,398.752110C287.972196,399.060567,288.713941,399.160400,289.435660,399.038420C294.464420,399.048200,299.493560,399.075560,304.521710,399.019170C305.647150,399.006550,305.972570,399.327680,305.960120,400.462170Q305.872860,408.415630,305.962430,416.370390C305.976860,417.552930,305.571300,417.768740,304.496430,417.757290C299.468220,417.703750,294.439120,417.726820,289.410430,417.741210C288.690758,417.610407,287.948388,417.698825,287.279570,417.995000Z" fill="rgb(12,12,12)" stroke="none" stroke-width="1"/><path id="enlIHxUABDG6" d="M250.608530,417.370490C250.563740,411.946490,250.481820,406.522490,250.480650,401.098490Q250.473410,367.212290,250.510850,333.326070C250.513480,330.315210,250.175510,330.754420,253.184980,330.739600C257.813980,330.716800,262.444700,330.799250,267.071580,330.696680C268.613100,330.662510,269.035580,331.068730,269.031580,332.643450Q268.947420,365.933550,268.989870,399.223960C268.197000,400.042220,267.157330,399.867470,266.189380,399.874580C262.028510,399.905160,257.867240,399.866580,253.706380,399.895910C251.526880,399.911270,251.371040,400.075720,251.357500,402.305150C251.332590,406.407390,251.371380,410.509970,251.335450,414.612070C251.327000,415.574440,251.525750,416.631420,250.608530,417.370490Z" fill="rgb(247,186,79)" stroke="none" stroke-width="1"/><path id="enlIHxUABDG7" d="M250.608530,417.370500C250.640890,412.020970,250.738430,406.670580,250.666760,401.322500C250.644640,399.671790,251.114870,399.193200,252.764820,399.220680C258.171820,399.310680,263.581500,399.235910,268.990000,399.224250Q278.099510,399.303630,287.209340,399.383430Q287.232160,408.463990,287.254950,417.544630Q269.606950,417.553720,251.958950,417.554630C251.505078,417.524714,251.053843,417.463188,250.608530,417.370500Z" fill="rgb(247,211,173)" stroke="none" stroke-width="1"/></g><g id="enlIHxUABDG8"><path id="enlIHxUABDG9" d="M139.050640,417.668000C139.057740,423.366550,139.031480,429.065520,139.098900,434.763370C139.113110,435.963510,138.823180,436.325870,137.570200,436.322760Q111.243730,436.257330,84.917200,436.335370C83.201400,436.342100,83.392330,435.469660,83.392650,434.380790C83.400370,407.940620,83.364320,381.500370,83.452320,355.060520C83.459320,352.950040,82.832320,352.609800,80.945370,352.662700C76.180510,352.796280,71.409070,352.676150,66.641070,352.729520C65.509020,352.742190,64.984240,352.563900,65.004000,351.241850C65.089180,345.544850,65.065250,339.846290,65.081000,334.148280C65.759716,333.599400,66.640592,333.366622,67.501860,333.508550Q83.687180,333.475260,99.872540,333.507440C100.669936,333.424534,101.472536,333.605156,102.157540,334.021670C102.633268,334.749694,102.833755,335.623519,102.722970,336.486110Q102.745580,367.392990,102.721250,398.299890C102.720990,398.498570,102.693740,398.696350,102.680520,398.893480C102.773370,404.058350,102.690160,409.224630,102.724520,414.390570C102.741520,416.939490,102.841960,417.050800,105.444160,417.054010Q120.538300,417.072560,135.632450,417.065480C136.688101,416.941451,137.758136,417.060012,138.761030,417.412130C138.858230,417.496420,138.954440,417.582210,139.050640,417.668000Z" fill="rgb(12,12,12)" stroke="none" stroke-width="1"/><path id="enlIHxUABDG10" d="M120.382000,315.505510C126.202320,315.483430,132.023450,315.507510,137.842380,315.405630C139.231530,315.381310,139.079000,316.113090,139.078490,316.997030Q139.055090,358.004520,139.049140,399.012030C138.949870,399.096650,138.850610,399.181270,138.752210,399.267480C137.947541,399.582891,137.079199,399.701646,136.219390,399.613870Q129.663170,399.632230,123.106920,399.610810C122.116110,399.764604,121.102874,399.561728,120.247660,399.038310C119.838474,398.349654,119.663761,397.546830,119.749760,396.750410C119.744620,376.033510,119.704550,355.316590,119.766900,334.599710C119.767290,334.467650,119.784900,334.335650,119.791520,334.203850C119.693190,328.714170,119.755750,323.223920,119.761220,317.733850C119.645441,316.936814,119.870798,316.127879,120.382000,315.505510Z" fill="rgb(12,12,12)" stroke="none" stroke-width="1"/><path id="enlIHxUABDG11" d="M120.382000,315.505510L120.380690,334.141970C119.680018,334.656858,118.807837,334.881845,117.945530,334.770140Q111.203220,334.798850,104.460830,334.772310C103.597182,334.862278,102.730343,334.634477,102.022510,334.131530L65.081030,334.148290C64.590490,332.869290,64.892120,331.541340,64.878740,330.240730C64.833130,325.805730,64.884120,321.369820,64.844040,316.934730C64.834900,315.923390,64.959120,315.408030,66.198040,315.412240Q93.289850,315.504370,120.382000,315.505510Z" fill="rgb(7,8,9)" stroke="none" stroke-width="1"/><path id="enlIHxUABDG12" d="M139.049130,399.012000C144.730190,399.005000,150.411890,399.041400,156.091830,398.957810C157.368230,398.939020,157.598340,399.351990,157.584830,400.518220Q157.494060,408.349590,157.584190,416.182460C157.597300,417.344010,157.372020,417.771460,156.090960,417.750710C150.411900,417.658710,144.730960,417.684710,139.050650,417.667990L139.094720,417.712540C138.572162,417.017239,138.337753,416.147256,138.440250,415.283540Q138.414250,408.340140,138.440250,401.396690C138.338093,400.532937,138.572675,399.663034,139.095250,398.967750Z" fill="rgb(12,12,12)" stroke="none" stroke-width="1"/><path id="enlIHxUABDG13" d="M102.022500,334.131530L120.380680,334.141970C120.409290,334.603180,120.462920,335.064400,120.462920,335.525610Q120.462740,367.218150,120.453740,398.910670C119.825447,399.509352,118.948709,399.771417,118.094930,399.615740C113.568430,399.650830,109.041680,399.642630,104.515060,399.622110C103.658558,399.735402,102.792557,399.498543,102.112940,398.965110Q102.085750,388.721820,102.058480,378.478520Q102.001620,357.496050,101.947760,336.513520C101.945880,335.719610,101.996380,334.925540,102.022500,334.131530Z" fill="rgb(247,186,79)" stroke="none" stroke-width="1"/><path id="enlIHxUABDG14" d="M102.112940,398.965100Q111.283570,398.938100,120.453940,398.910860Q129.774340,398.939120,139.095190,398.967750L139.094680,417.712580C127.437570,417.710660,115.780280,417.676190,104.123580,417.743920C102.480300,417.753460,101.835420,417.507250,101.914100,415.640770C102.148220,410.087780,101.770780,404.521730,102.112940,398.965100Z" fill="rgb(247,212,173)" stroke="none" stroke-width="1"/></g><g id="enlIHxUABDG15" transform="matrix(1 0 0 1 -0.00001144479492 0.00000763150393)"><path id="enlIHxUABDG16" d="M50.537000,249.024050C50.064000,248.511160,50.298250,247.883050,50.297440,247.314160C50.281600,236.167160,50.319160,225.019830,50.246190,213.873240C50.236310,212.363940,50.624990,212.010970,52.101080,212.039870C57.148250,212.138670,62.199240,212.032020,67.247180,212.108960C68.554680,212.128880,68.915880,211.771170,68.895980,210.464220C68.819210,205.422670,68.914860,200.378460,68.834030,195.337040C68.810140,193.846610,69.272600,193.399940,70.760670,193.425550C75.675450,193.510140,80.593670,193.400620,85.508170,193.492350C86.966230,193.519560,87.439330,193.192580,87.405720,191.649890C87.297360,186.675890,87.424110,181.696890,87.328350,176.722370C87.300830,175.292810,87.729830,174.801780,89.093350,175.028940C89.358145,175.052552,89.624421,175.054612,89.889550,175.035100Q245.049830,175.035100,400.210080,174.989980C402.236380,174.988980,402.818510,175.423980,402.810650,177.537870C402.725120,200.557680,402.757120,223.577930,402.757120,246.598060C402.757120,259.134560,402.721220,271.671290,402.799410,284.207300C402.809990,285.905060,402.311410,286.283870,400.698990,286.248750C395.851490,286.143190,390.999540,286.255280,386.150870,286.180750C384.867930,286.161030,384.468870,286.479210,384.491050,287.807090C384.572930,292.715750,384.476450,297.627330,384.554050,302.536090C384.575730,303.906560,384.335770,304.400350,382.783690,304.570620C377.937480,305.102310,373.091960,304.826550,368.251320,304.821270C366.265760,304.819090,365.835980,305.467000,365.889610,307.324430C366.023610,311.965180,365.881120,316.613360,365.967550,321.256360C365.991690,322.554020,365.558010,322.971580,364.332180,323.074820C360.151520,323.426890,355.967090,323.218740,351.784780,323.271440C347.445850,323.326130,347.446020,323.339190,347.446020,327.576290C347.446020,331.756440,347.405480,335.937290,347.472740,340.116290C347.490940,341.248630,347.160000,341.527090,346.043400,341.536040C334.950400,341.624900,323.857900,341.885390,312.765190,341.889970Q192.882190,341.939500,72.999190,341.902520C66.026190,341.901830,59.052690,341.775970,52.080380,341.830370C50.491680,341.842760,50.251080,341.272590,50.257490,339.876080C50.308080,328.861950,50.258660,317.847350,50.317490,306.833310C50.325420,305.348790,50.056490,304.790880,48.403410,304.832110C43.423840,304.956330,38.438770,304.841730,33.456830,304.902010C32.234890,304.916800,31.749450,304.708210,31.751090,303.310560Q31.782090,277.037910,31.651700,250.765290C31.644190,249.295130,32.119240,249.077590,33.437310,249.086430C39.145760,249.124740,44.855010,249.044090,50.563970,249.006710C51.394280,251.107600,50.829900,253.299710,50.977370,255.445390C51.031370,256.230390,50.991740,257.022460,50.991370,257.811170C51.007880,259.601170,50.920500,261.392380,51.052980,263.181740C51.087390,269.685030,51.053710,276.188110,51.075510,282.691120C51.084400,285.341930,51.239360,285.496770,53.905430,285.512830C57.891940,285.536830,61.878780,285.494830,65.865190,285.529170C68.932070,285.555620,69.448650,285.979450,69.385950,288.952670C69.176050,298.906670,70.022520,308.842670,69.822070,318.796020C69.746610,322.543340,69.813680,322.549020,73.520540,322.549090Q162.521740,322.550450,251.522920,322.549900C252.386570,322.549900,253.250830,322.525840,254.112560,322.601790C255.173660,322.522500,256.236630,322.553990,257.299040,322.553960Q290.479220,322.553180,323.659400,322.553110C324.323620,322.553110,324.989240,322.522420,325.651730,322.544170C327.087950,322.591330,327.683730,321.908260,327.668240,320.497570C327.647140,318.574250,327.675640,316.649840,327.665440,314.726030C327.603902,311.940749,327.727309,309.154454,328.034850,306.385520C328.358490,303.851790,328.639960,303.489410,331.273790,303.456880C335.258980,303.407660,339.244890,303.450520,343.230470,303.439150C346.390180,303.430150,346.400470,303.418040,346.405700,300.188970C346.411930,296.341090,346.389470,292.493130,346.413830,288.645360C346.433780,285.495240,346.788980,285.148740,350.011570,285.130910C354.063510,285.108500,358.115660,285.133910,362.167660,285.121610C365.063810,285.112820,365.133070,285.040360,365.142290,282.071130C365.153000,278.621340,365.144290,275.171490,365.145140,271.721660C365.146430,266.411370,365.146650,266.411660,370.363600,266.410060C373.751370,266.409060,377.139280,266.429840,380.526860,266.402060C382.836470,266.383060,383.071140,266.182060,383.073330,263.911420Q383.105790,230.176170,383.075890,196.440860C383.074430,194.264520,382.855670,194.040360,380.661710,194.038590Q346.485180,194.011000,312.308610,194.033510C311.510977,194.039098,310.715363,194.114469,309.930870,194.258760C308.480118,194.437995,307.016746,194.493448,305.556590,194.424520Q208.021710,194.430520,110.486860,194.428210C106.489730,194.428210,106.490600,194.429860,106.487290,198.487290C106.484290,202.135660,106.519010,205.784290,106.473230,209.432290C106.438280,212.217690,105.972750,212.694680,103.223060,212.728440C99.039150,212.779820,94.854350,212.715440,90.670290,212.755990C88.391720,212.778080,88.174050,212.999880,88.157290,215.285120C88.126670,219.463990,88.164860,223.643230,88.142000,227.822180C88.124200,231.076540,87.760850,231.430730,84.435510,231.452330C80.915510,231.475190,77.395220,231.450060,73.875090,231.460500C69.588590,231.473220,69.823950,231.220290,69.810180,235.423680C69.798010,239.138350,69.841990,242.853390,69.792970,246.567680C69.757560,249.249850,69.292050,249.732750,66.660330,249.758330C62.077850,249.802860,57.494780,249.783740,52.911990,249.763750C52.313253,249.793156,51.714214,249.712168,51.144780,249.524830C50.905175,249.408721,50.696793,249.237024,50.537000,249.024050Z" fill="rgb(12,12,12)" stroke="none" stroke-width="1"/><path id="enlIHxUABDG17" d="M50.859920,249.389000C56.237350,249.352430,61.615380,249.258800,66.991850,249.314340C68.586000,249.330810,69.182850,248.973890,69.141640,247.247900C69.022810,242.274530,69.143040,237.295850,69.069560,232.320730C69.051060,231.068340,69.430110,230.771200,70.638430,230.787460C75.620040,230.854460,80.604680,230.744690,85.584640,230.857200C87.145760,230.892480,87.432950,230.391340,87.407080,228.958930C87.318450,224.050660,87.429080,219.138810,87.339850,214.230570C87.312210,212.710000,87.673090,212.170150,89.299910,212.205570C94.280050,212.313950,99.264830,212.196870,104.246080,212.275690C105.634240,212.297690,106.064500,211.913900,106.037720,210.503690C105.944500,205.595490,106.074930,200.681940,105.922130,195.776580C105.867860,194.034380,106.417130,193.747940,108.015550,193.749770Q166.709440,193.816840,225.403430,193.786080Q267.654490,193.791880,309.905520,193.817140C310.712230,194.526370,310.602970,195.501470,310.603770,196.410760Q310.633890,230.823330,310.604070,265.235890C310.601120,268.035070,310.154230,268.448330,307.340810,268.481890Q303.557420,268.526980,299.773810,268.482590C297.624460,268.331790,295.472630,268.400320,293.322720,268.446980C291.682020,268.464150,291.438140,269.529100,291.440790,270.860300C291.449140,275.032810,291.457580,279.205460,291.435340,283.377940C291.582725,284.368322,291.402167,285.379732,290.921200,286.257940C289.109620,287.148760,287.173410,286.532560,285.303920,286.724790C283.547390,286.734320,281.790110,286.673030,280.034190,286.766950C278.368830,286.734350,276.728740,287.048270,275.075920,287.137430C273.624580,287.215700,273.111360,287.887010,273.115840,289.264290Q273.133540,294.734930,273.117030,300.205940C273.115330,301.001650,273.140150,301.798390,273.091160,302.592770C272.956060,304.782540,272.362460,305.424510,270.151650,305.469930C266.036080,305.554500,261.918720,305.487620,257.802100,305.500710C254.812100,305.510220,254.786380,305.531540,254.779640,308.466330C254.770540,312.445150,254.794840,316.424090,254.765060,320.402760C254.758270,321.311760,254.898510,322.283760,254.134740,323.023180C253.407190,323.054740,252.679660,323.113890,251.952100,323.113950Q161.706320,323.120340,71.460580,323.161950C69.569720,323.163640,69.038740,322.755950,69.047580,320.800730C69.097320,309.797730,68.957290,298.793930,68.957400,287.790410C68.957400,286.384290,68.554500,286.004560,67.170400,286.026120C62.124770,286.104690,57.076810,286.024440,52.030590,286.081010C50.845230,286.094290,50.419520,285.800700,50.432790,284.539810C50.508170,277.378680,50.497900,270.216630,50.516790,263.054900C50.646772,261.293603,50.685367,259.526753,50.632420,257.761460C50.779110,254.972000,50.337290,252.167420,50.859920,249.389000Z" fill="rgb(247,186,79)" stroke="none" stroke-width="1"/><path id="enlIHxUABDG18" d="M290.833000,286.161680C290.843470,280.811180,290.923520,275.459410,290.827000,270.110830C290.792690,268.209150,291.474930,267.560750,293.268720,267.904620C295.359924,268.150753,297.472909,268.148527,299.563590,267.897990C302.413780,267.880730,305.265350,267.805350,308.113590,267.871910C309.441870,267.902910,309.965890,267.571800,309.962920,266.121980Q309.888790,229.969460,309.906130,193.816980C310.497030,193.358490,311.187060,193.576060,311.827860,193.575720C335.139630,193.563110,358.451420,193.586610,381.763020,193.522480C383.540280,193.517600,383.956710,193.984190,383.949720,195.727730C383.880910,212.973600,383.908140,230.219840,383.908090,247.465970C383.908090,253.495440,383.874090,259.525250,383.935000,265.554120C383.948000,266.840570,383.590390,267.253260,382.273080,267.233940C377.359390,267.161790,372.443080,267.260180,367.529930,267.171720C366.061480,267.145290,365.582350,267.517830,365.611140,269.042190C365.706260,274.081560,365.608320,279.124370,365.673870,284.164690C365.690490,285.442050,365.370550,285.867160,364.021510,285.845390C358.908870,285.762840,353.793510,285.853000,348.680510,285.783530C347.402190,285.766170,346.985510,286.082250,347.006510,287.416450C347.085980,292.456380,346.990130,297.499090,347.070890,302.538970C347.092230,303.868970,346.687030,304.187140,345.407370,304.168820C340.427250,304.097470,335.444750,304.187530,330.464870,304.108090C329.126710,304.086740,328.690450,304.391650,328.602630,305.811870C328.278830,311.048690,328.288490,316.286210,328.330800,321.524940C328.339850,322.643940,328.185800,323.151080,326.851310,323.148580Q290.787950,323.081040,254.724440,323.107230C254.526221,323.093560,254.329257,323.065516,254.135100,323.023320C254.141160,317.594320,254.199850,312.164650,254.120300,306.737000C254.098160,305.226270,254.582380,304.824440,256.046900,304.846000C260.818720,304.916380,265.593560,304.790430,270.365090,304.869650C272.034140,304.897350,272.536880,304.327070,272.507410,302.695030C272.420150,297.863310,272.500990,293.028790,272.458350,288.195880C272.448350,287.066880,272.681930,286.445590,273.982450,286.545880C276.030450,286.703810,278.037570,285.893690,280.102750,286.217880C281.823396,286.386969,283.553657,286.437149,285.281210,286.368060C287.129850,286.241600,288.997360,286.629660,290.833000,286.161680Z" fill="rgb(247,212,173)" stroke="none" stroke-width="1"/><path id="enlIHxUABDG19" d="M50.859920,249.389000L50.792210,257.866620C50.705330,258.066350,50.602550,258.064930,50.486120,257.890750C50.349712,254.931037,50.374729,251.966089,50.561060,249.009100C50.564060,249.006770,50.529180,249.031210,50.533060,249.027630C50.644650,249.145690,50.752290,249.267340,50.859920,249.389000Z" fill="rgb(230,229,229)" stroke="none" stroke-width="1"/><path id="enlIHxUABDG20" d="M50.486120,257.890740C50.588774,257.894006,50.691474,257.885886,50.792340,257.866530C50.703340,259.596190,51.165930,261.354970,50.516800,263.054910Z" fill="rgb(219,183,131)" stroke="none" stroke-width="1"/><path id="enlIHxUABDG21" d="M299.563630,267.898000C297.501838,268.450154,295.331344,268.452346,293.268440,267.904360Q296.416370,267.901440,299.563630,267.898000Z" fill="rgb(251,228,198)" stroke="none" stroke-width="1"/><path id="enlIHxUABDG22" d="M290.833000,286.161680C289.024910,287.005300,287.111550,286.361950,285.257410,286.555390Q285.055020,286.439320,285.125410,286.328740C285.171350,286.256100,285.217410,286.219600,285.264160,286.219600Z" fill="rgb(250,228,204)" stroke="none" stroke-width="1"/><path id="enlIHxUABDG23" d="M285.264200,286.219600Q285.253680,286.387420,285.257340,286.555450C283.543640,286.372260,281.778610,286.968450,280.102510,286.217610Q282.683650,286.218900,285.264200,286.219600Z" fill="rgb(249,221,184)" stroke="none" stroke-width="1"/></g><g id="enlIHxUABDG24"><path id="enlIHxUABDG25" d="M468.498470,74.149610C473.941370,74.152780,479.384690,74.192910,484.826890,74.133170C486.187620,74.118240,486.859030,74.267350,487.002150,75.927480C487.414150,80.706230,487.161920,85.482340,487.193980,90.256330C487.207600,92.289670,487.793810,92.946050,489.899920,92.867260C494.606760,92.691260,499.325150,92.847940,504.037810,92.787740C505.251720,92.772230,505.733220,92.986250,505.731880,94.375060Q505.670880,157.708160,505.728750,221.041340C505.730010,222.492490,505.237490,222.798010,503.899410,222.778650C498.987840,222.707650,494.074010,222.793100,489.162490,222.721170C487.905190,222.702740,487.516020,223.017310,487.439720,224.325540C487.149450,229.302880,487.199260,234.281320,487.255790,239.258030C487.271860,240.677220,486.843490,240.986030,485.484900,240.962380C480.507470,240.875570,475.527060,240.966610,470.548950,240.901530C469.270870,240.884790,468.870440,241.213450,468.881040,242.553150C468.925750,248.190150,468.838890,253.828290,468.800170,259.465990C468.179185,259.704539,467.504832,259.768912,466.849930,259.652160Q423.058930,259.666320,379.267840,259.659820C376.858060,259.659750,376.642840,259.500820,376.608360,257.117380Q376.517810,250.848190,376.607180,244.577570C376.650730,241.597780,377.301180,240.980160,380.290310,240.978290Q413.332630,240.957610,446.374970,240.960630C447.336650,240.959950,448.395040,241.252850,449.173790,240.358410C449.509581,239.558328,449.627101,238.683484,449.514360,237.823150C449.528660,233.578620,449.496140,229.333870,449.530070,225.089480C449.553380,222.177330,449.945540,221.796480,452.912700,221.775360C457.223370,221.744640,461.534480,221.788840,465.845140,221.756800C468.040050,221.740480,468.219700,221.561100,468.238990,219.355030C468.276130,215.110690,468.214300,210.865670,468.265820,206.621510C468.298480,203.928750,468.746510,203.478090,471.404360,203.448950C475.449570,203.404560,479.495360,203.443950,483.540960,203.433020C486.487810,203.425020,486.575640,203.351100,486.577050,200.442740Q486.589130,175.572170,486.580580,150.701590C486.580580,149.905870,486.563580,149.109830,486.629520,148.315720C486.524710,139.103220,486.611470,129.890340,486.583690,120.677630C486.578900,119.086870,486.587290,117.496070,486.582190,115.905300C486.568320,111.580480,486.825270,111.871750,482.633930,111.859680C478.855930,111.848810,475.077770,111.869680,471.299770,111.849190C470.307964,111.989838,469.297205,111.808278,468.416350,111.331250C467.970520,110.663140,467.775326,109.858889,467.865290,109.060740C467.867210,103.695380,467.785490,98.329740,467.900710,92.965070C467.815710,87.429640,467.870350,81.893580,467.873100,76.357630C467.824681,75.696406,467.947534,75.033866,468.229800,74.433960C468.318380,74.338600,468.408420,74.244100,468.498470,74.149610Z" fill="rgb(7,8,8)" stroke="none" stroke-width="1"/><path id="enlIHxUABDG26" d="M290.800740,259.454610C290.215300,257.789750,290.572580,256.070270,290.545600,254.379610C290.484160,250.529090,290.469170,246.675550,290.557370,242.826050C290.587840,241.496370,290.184500,241.154660,288.881160,241.165160C281.444300,241.225220,274.006330,241.155220,266.569670,241.227090C265.073050,241.241520,264.512890,240.940250,264.539600,239.299300C264.617380,234.520970,264.413750,229.737900,264.501330,224.960010C264.530170,223.386150,264.027750,223.144470,262.617700,223.168940C257.638840,223.255430,252.656700,223.150650,247.677790,223.237070C246.337550,223.260350,246.070500,222.846150,246.071470,221.584230Q246.120250,158.133740,246.067470,94.683230C246.066210,93.283800,246.435090,92.907830,247.827560,92.932420C252.739980,93.019250,257.656370,92.898420,262.567970,93.006140C264.108450,93.039940,264.414900,92.566870,264.406750,91.111490C264.344310,79.955710,264.407460,68.799170,264.332830,57.643540C264.322250,56.062040,264.751020,55.676540,266.291640,55.710540C271.929290,55.834900,277.570210,55.811410,283.209900,55.843590C283.294670,55.944170,283.379450,56.044750,283.465900,56.144440C283.739066,56.751959,283.857160,57.417784,283.809590,58.082190C283.803110,69.678610,283.883430,81.275130,283.774800,92.871110C283.876110,98.247920,283.840470,103.625670,283.797030,109.002630C283.776600,111.529630,283.105850,112.183230,280.566880,112.231470C276.385050,112.310940,272.201530,112.228670,268.019060,112.267940C265.703310,112.289690,265.501440,112.478010,265.500410,114.774190Q265.481050,157.797190,265.502410,200.820190C265.503890,203.209920,265.729200,203.409910,268.149640,203.426860C272.133050,203.454790,276.116800,203.419100,280.100280,203.440630C283.415910,203.458530,283.792720,203.822630,283.815200,207.073720C283.844130,211.256400,283.798060,215.439440,283.834010,219.622000C283.853920,221.937690,284.056140,222.139460,286.337350,222.156000C290.652710,222.187330,294.968540,222.138000,299.283820,222.176750C302.075190,222.201820,302.508200,222.634170,302.538920,225.442750C302.584680,229.625210,302.527870,233.808400,302.562860,237.990980C302.582080,240.288260,302.770740,240.471560,305.085920,240.488220C309.069330,240.516900,313.053050,240.483750,317.036550,240.504860C318.030468,240.365793,319.042774,240.549631,319.924330,241.029290C320.304840,241.579243,320.472478,242.248758,320.396020,242.913130Q320.429800,250.258220,320.397320,257.603430C320.485067,258.266717,320.319892,258.938728,319.934660,259.485760C319.505999,259.667405,319.035409,259.726793,318.575060,259.657340Q305.360620,259.663580,292.146190,259.656270C291.687830,259.744299,291.213151,259.673152,290.800740,259.454610Z" fill="rgb(7,7,9)" stroke="none" stroke-width="1"/><path id="enlIHxUABDG27" d="M450.137470,37.120410C455.845110,37.112790,461.552840,37.119490,467.260280,37.083130C468.184680,37.077230,468.666730,37.171010,468.662020,38.329750C468.614220,50.077180,468.630230,61.824860,468.621930,73.572470C468.601344,73.768699,468.559941,73.962181,468.498420,74.149650L468.504330,74.142950C467.484420,75.005400,466.246720,74.798250,465.072280,74.799220Q440.697920,74.819390,416.323590,74.808010Q379.513350,74.808150,342.703090,74.798760C341.458970,74.798120,340.170630,75.011760,339.002490,74.338140C338.550047,73.844248,338.324402,73.183858,338.380020,72.516370Q338.289240,64.998970,338.379620,57.481260C338.375625,57.016946,338.482680,56.558404,338.691860,56.143860C338.777160,56.044050,338.864070,55.945110,338.950960,55.846160C339.677030,55.813090,340.403080,55.751290,341.129160,55.751160C364.280080,55.746090,387.431090,55.720870,410.581770,55.795620C412.473900,55.801730,412.854980,55.238990,412.814050,53.488880C412.699270,48.582720,412.809330,43.671690,412.749050,38.763590C412.734120,37.546340,412.944050,37.039720,414.337760,37.062160C420.040870,37.154000,425.746150,37.111540,431.450620,37.118540C431.531910,37.211350,431.613200,37.304150,431.695980,37.396010C432.024103,38.266647,432.141925,39.202480,432.039850,40.127280C432.055750,44.432280,432.042580,48.737370,432.048030,53.042420C432.049450,54.167420,432.108100,55.211650,433.661610,55.198790C437.965160,55.163200,442.275120,55.394140,446.570690,55.083010C449.494310,54.871270,449.534030,54.724320,449.539800,51.851880C449.547650,47.944230,449.533430,44.036520,449.547730,40.128880C449.445671,39.203765,449.562478,38.267613,449.888730,37.395940C449.970690,37.303450,450.054070,37.211930,450.137470,37.120410Z" fill="rgb(7,7,9)" stroke="none" stroke-width="1"/><path id="enlIHxUABDG28" d="M283.227250,55.429130C283.205090,43.564980,283.196660,31.700760,283.136870,19.836810C283.131620,18.795180,283.529140,18.659730,284.414870,18.668320C290.113510,18.723620,295.812610,18.732050,301.511570,18.755880C302.216660,19.447740,302.066420,20.349180,302.067680,21.190710Q302.091320,37.066960,302.070020,52.943250C302.201774,53.800495,302.039529,54.677097,301.609690,55.430400C300.963811,55.907343,300.153738,56.105561,299.360610,55.980730Q292.416950,56.009150,285.473200,55.982890C284.680289,56.114081,283.868295,55.913877,283.227250,55.429130Z" fill="rgb(7,7,9)" stroke="none" stroke-width="1"/><path id="enlIHxUABDG29" d="M320.647380,18.757000C326.344290,18.732820,332.041380,18.726190,337.737940,18.666500C338.646070,18.656990,339.003040,18.829640,338.998150,19.848500C338.941220,31.708580,338.933780,43.568890,338.913250,55.429150C338.272928,55.919590,337.456926,56.120432,336.662120,55.983220C332.084010,55.999130,327.505770,56.010030,322.927760,55.981630C320.482830,55.966460,320.101760,55.617730,320.095090,53.247160Q320.049820,37.124070,320.090980,21.000840C319.940292,20.207541,320.143514,19.387991,320.647380,18.757000Z" fill="rgb(7,7,9)" stroke="none" stroke-width="1"/><path id="enlIHxUABDG30" d="M290.800740,259.454610Q305.323740,259.438870,319.846800,259.423180C320.049160,259.262704,320.274241,259.133187,320.514670,259.038870C324.582510,258.602810,328.663500,258.929150,332.738200,258.851610C334.645020,258.815320,336.555010,258.782800,338.462010,258.885000C339.840350,258.840860,341.219010,258.832810,342.597190,258.885760C346.288330,258.799170,349.980390,258.876640,353.672010,258.842950C354.523683,258.953602,355.389453,258.834513,356.179620,258.498020C356.912530,257.898790,356.739280,257.062950,356.741690,256.290640C356.754800,252.074220,356.735640,247.857710,356.756450,243.641350C356.590661,242.724520,356.773590,241.778830,357.269320,240.989960C358.108118,240.583422,359.050505,240.440890,359.972010,240.581190C365.862130,240.537190,371.752730,240.634380,377.642820,240.522190C400.996600,240.454280,424.350360,240.496990,447.704100,240.499280C448.569206,240.383140,449.445826,240.604384,450.152210,241.117140C449.440860,241.871860,448.520500,241.517550,447.703030,241.518300Q413.863550,241.549970,380.024030,241.535740C377.350360,241.535860,377.237560,241.645410,377.233550,244.353320C377.227150,248.666250,377.319620,252.981830,377.189620,257.290840C377.135920,259.071110,377.682040,259.506300,379.424120,259.503240Q424.112040,259.424460,468.800120,259.466000C468.330660,260.205520,467.605590,259.793710,467.024270,259.793930Q379.805270,259.827930,292.586270,259.795000C291.999490,259.794770,291.270890,260.194000,290.800740,259.454610Z" fill="rgb(10,12,12)" stroke="none" stroke-width="1"/><path id="enlIHxUABDG31" d="M320.647380,18.757000C320.646160,30.172760,320.686650,41.588820,320.601920,53.003940C320.588090,54.867940,321.009690,55.526390,322.985680,55.475560C328.291760,55.339070,333.603680,55.429080,338.913250,55.429140L338.950960,55.846140L338.996460,55.807770C338.359048,56.300792,337.557081,56.531096,336.755200,56.451400C332.109780,56.476100,327.464100,56.489550,322.818930,56.448720C320.092590,56.424720,319.633000,55.954530,319.622700,53.117630C319.587050,43.295730,319.612200,33.473690,319.608340,23.651700C319.608160,23.187150,319.612510,22.722540,319.606170,22.258050C319.569660,19.583310,319.428760,19.421490,316.796170,19.408590C312.880770,19.389400,308.965110,19.383420,305.049800,19.411590C302.768140,19.428000,302.566430,19.620790,302.560800,21.940230C302.536340,32.027640,302.562610,42.115140,302.537280,52.202530C302.534520,53.299790,302.781640,54.487140,301.859150,55.405820Q301.665450,55.391370,301.471210,55.376100Q301.491360,37.065980,301.511490,18.755870C301.548400,13.066360,301.619490,7.376710,301.595250,1.687470C301.590000,0.453000,301.826630,-0.022000,303.199710,0.000780C308.426890,0.087570,313.656910,0.076560,318.884560,0.005490C320.104560,-0.011090,320.435650,0.301040,320.417560,1.531170C320.343730,6.560170,320.382370,11.590960,320.391790,16.621060C320.277857,17.342977,320.366331,18.082347,320.647380,18.757000Z" fill="rgb(7,7,9)" stroke="none" stroke-width="1"/><path id="enlIHxUABDG32" d="M431.450640,37.118500C431.436320,31.548320,431.464310,25.977500,431.375930,20.408500C431.355550,19.123990,431.824710,18.852800,432.970680,18.848390C438.275090,18.828020,443.580450,18.788520,448.882680,18.650090C450.217890,18.615220,450.176680,19.266280,450.171290,20.209430C450.138940,25.846310,450.144580,31.483430,450.137480,37.120430L450.182350,37.073910C449.486264,37.597954,448.614907,37.833393,447.749620,37.731230Q440.794540,37.757230,433.839460,37.731230C432.974173,37.833680,432.102709,37.598485,431.406460,37.074600Z" fill="rgb(7,7,9)" stroke="none" stroke-width="1"/><path id="enlIHxUABDG33" d="M283.227250,55.429130Q292.349390,55.402860,301.471400,55.376360L301.541480,55.453760C301.339860,56.431870,300.496950,56.394760,299.824350,56.408130C294.815670,56.507750,289.805930,56.499790,284.796670,56.421130C284.195934,56.423023,283.615233,56.205218,283.163920,55.808730L283.209920,55.843520Z" fill="rgb(7,7,9)" stroke="none" stroke-width="1"/><path id="enlIHxUABDG34" d="M377.379820,240.935460Q368.531980,240.985700,359.684150,241.039680C358.891340,241.045110,358.098880,241.101560,357.306260,241.134370C357.110394,241.299064,356.892414,241.435498,356.658680,241.539690C351.993860,241.994030,347.318770,241.684880,342.647930,241.717110Q340.571410,241.791390,338.494460,241.718110C333.014230,241.814870,327.534100,241.750110,322.054110,241.751900C321.524690,241.775494,320.995387,241.702719,320.491980,241.537120C320.258172,241.424948,320.040977,241.281021,319.846550,241.109420C314.476140,241.125620,309.104550,241.084810,303.736100,241.195040C302.252240,241.225490,301.841300,240.852790,301.874650,239.346910C301.980480,234.568190,301.842870,229.783970,301.952440,225.005400C301.990540,223.343630,301.693970,222.724950,299.833440,222.784640C294.924650,222.942110,290.006550,222.785340,285.094200,222.870940C283.679030,222.895600,283.313000,222.460090,283.333930,221.085340C283.410740,216.039800,283.319590,210.991750,283.393250,205.946100C283.413650,204.549240,282.979200,204.132100,281.590710,204.152700C276.611560,204.226550,271.629900,204.134290,266.650890,204.212560C265.299710,204.233790,264.981430,203.781840,264.982710,202.505820Q265.027710,157.882380,264.972980,113.258920C264.970640,111.697670,265.514310,111.384300,266.935230,111.407710C271.648590,111.485380,276.366920,111.341480,281.077230,111.484980C282.908510,111.540750,283.246330,110.938370,283.218570,109.250640C283.129070,103.808970,283.221200,98.364310,283.243310,92.920800C284.183910,92.050260,285.361950,92.266600,286.467120,92.264490Q301.204780,92.236370,315.942530,92.253340C319.606530,92.252560,319.578530,92.249480,319.617530,88.494340C319.660280,84.383710,319.377230,80.262980,320.024530,76.168250C320.208660,75.003440,320.581080,74.039380,321.910630,74.018960C327.611490,73.931460,333.314500,73.706340,339.012290,74.131650Q379.852010,74.145350,420.691730,74.157650Q444.598010,74.161180,468.504280,74.142970Q468.482610,83.478530,468.460960,92.814110C467.868135,93.359597,467.064306,93.614780,466.265400,93.511110C460.917500,93.514240,455.569400,93.589030,450.222700,93.478880C445.047810,93.572140,439.871480,93.487720,434.695540,93.523340C432.207630,93.540470,432.069100,93.658980,432.066050,96.079930Q432.046980,111.211440,432.068940,126.342990C432.074730,129.071490,432.322240,129.295690,435.016880,129.316660C440.060110,129.355920,445.103820,129.259660,450.146950,129.362270C455.194030,129.262190,460.241560,129.352160,465.288660,129.315090C467.728890,129.297160,467.841090,129.189090,467.852400,126.696400C467.871690,122.445730,467.831900,118.194740,467.876630,113.944400C467.886630,112.994080,467.637850,111.909610,468.672840,111.235960C474.382980,111.230960,480.093220,111.238340,485.803220,111.208030C486.705330,111.203250,487.251580,111.248240,487.245220,112.435100C487.181370,124.385600,487.175970,136.336390,487.154130,148.287100C486.531318,148.796031,485.723300,149.019804,484.927410,148.903770C479.576830,148.906270,474.226010,148.978040,468.875590,148.873640Q450.195370,148.995330,431.516370,148.873160C426.408200,148.964870,421.298670,148.886270,416.189370,148.914930C413.392140,148.930620,413.338920,148.980170,413.332570,151.846820C413.323460,155.961260,413.341810,160.075760,413.322190,164.190140C413.463157,165.182681,413.286210,166.194370,412.816720,167.080140C412.082658,167.548346,411.207595,167.744168,410.343990,167.633490C406.029770,167.655620,401.715260,167.669620,397.401230,167.631580C394.701230,167.607750,394.438050,167.321580,394.026540,164.572690C393.633568,162.076809,393.603672,159.537210,393.937780,157.032770C394.237990,154.888050,393.705340,152.803630,393.638430,150.687920C393.610080,149.791750,393.024520,149.436920,392.195900,149.363770C391.532960,149.305240,390.869740,149.314550,390.206400,149.314490Q366.510950,149.312430,342.815460,149.313570C342.350850,149.313570,341.884070,149.345810,341.422070,149.316380C339.802300,149.213120,339.176640,149.967740,339.196740,151.568810C339.241740,155.152260,339.213090,158.737010,339.208990,162.321220C339.208220,162.984970,339.216850,163.648850,339.203250,164.312420C339.144560,167.177300,338.727810,167.607540,335.788600,167.634170C331.806410,167.670170,327.823760,167.631660,323.841390,167.649170C321.025640,167.661540,320.891550,167.792930,320.881290,170.538970C320.866400,174.521390,320.895740,178.503970,320.870610,182.486350C320.849780,185.786350,320.313260,186.337830,317.068020,186.365610C313.152180,186.399140,309.235880,186.357330,305.319940,186.381490C302.749160,186.397350,302.563610,186.575010,302.552660,189.060300C302.534220,193.241820,302.581660,197.423960,302.530530,201.604790C302.510780,203.219510,303.139530,203.863210,304.753180,203.850950Q311.323540,203.801100,317.894960,203.850870C320.831360,203.876870,321.242260,204.287180,321.266480,207.198310C321.300180,211.246950,321.252570,215.296090,321.285860,219.344750C321.304460,221.606750,321.679960,222.043700,323.937180,222.122680C327.784430,222.257380,331.635860,222.133460,335.485100,222.180520C338.624030,222.218900,339.178160,222.775230,339.201270,225.935280C339.229410,229.784830,339.191670,233.634760,339.215530,237.484380C339.230450,239.894470,339.410770,240.090690,341.837930,240.095650C352.656840,240.117650,363.475830,240.089810,374.294670,240.124450C375.360000,240.127830,376.586560,239.784630,377.379820,240.935460Z" transform="matrix(1 0 0 1 1.19503776832397 0.70546835373017)" fill="rgb(247,186,79)" stroke="none" stroke-width="1"/><path id="enlIHxUABDG35" d="M377.379820,240.935460C376.549986,240.709440,375.682274,240.658111,374.831580,240.784720C363.540770,240.767020,352.249490,240.724280,340.959420,240.818340C338.991180,240.834730,338.516360,240.227090,338.571780,238.350450C338.705050,233.837980,338.569970,229.318230,338.640480,224.802950C338.663360,223.337570,338.157180,222.778550,336.692330,222.795890C332.708200,222.843030,328.723010,222.801760,324.738250,222.791590Q323.842060,222.789320,322.946020,222.752750C321.224820,222.684130,320.469630,222.021000,320.545090,220.068990C320.721970,215.492990,320.540790,210.904300,320.635760,206.323470C320.667460,204.794640,320.158100,204.416970,318.698110,204.441120C313.718210,204.523480,308.735710,204.437790,303.755110,204.496240C302.456900,204.511490,301.856960,204.261570,301.881580,202.771820Q302.008330,195.102650,301.883020,187.430390C301.860020,185.963840,302.427900,185.667550,303.746020,185.684560C308.527220,185.746310,313.310920,185.647630,318.091080,185.741750C319.776300,185.774950,320.262080,185.178980,320.234080,183.553750C320.150570,178.706750,320.259210,173.856320,320.172080,169.009410C320.144460,167.473320,320.540080,166.936010,322.160640,166.971350C327.006760,167.077000,331.857560,166.957290,336.704540,167.040690C338.168890,167.065890,338.663630,166.674890,338.634030,165.153410C338.541030,160.373160,338.659450,155.588810,338.566300,150.808560C338.535410,149.223980,338.884140,148.635170,340.620100,148.641710Q366.422650,148.738940,392.225700,148.648830C393.905850,148.643710,394.246370,149.257220,394.432150,150.824900C395.011020,155.709620,393.871810,160.608220,394.716900,165.485850C394.895180,166.514920,395.042720,167.020150,396.208250,167.005670C401.719190,166.937250,407.230990,166.938520,412.742470,166.914940C413.341904,166.495240,414.073639,166.308141,414.800960,166.388600Q422.105060,166.348820,429.409230,166.390700C430.136639,166.325351,430.865552,166.498575,431.485790,166.884190C431.985823,167.677532,432.188106,168.622576,432.056630,169.551090C432.077180,173.867010,432.085860,178.183090,432.057360,182.498970C432.037300,185.533340,431.624920,185.964200,428.587440,185.970060Q407.771370,186.010270,386.955290,185.960640C384.236720,185.952270,381.529780,186.380040,378.802780,186.062060C377.426300,185.901550,376.707640,186.617410,376.695480,188.043660C376.658120,192.425910,376.692270,196.808110,376.676630,201.190160C376.671630,202.576370,377.332300,203.099000,378.636630,203.034470C379.099630,203.011470,379.565890,203.037780,380.030630,203.037810Q413.196980,203.037870,446.363330,203.036980C449.913540,203.036660,449.915120,203.031550,449.919140,199.562720C449.923460,195.844320,449.896590,192.125720,449.929350,188.407590C449.954280,185.577080,450.366480,185.154310,453.146090,185.117430C456.731230,185.069860,460.317970,185.163500,463.902330,185.082300C468.194450,184.985080,468.250490,184.895630,468.250870,180.712750Q468.252220,166.071600,468.259050,151.430440C468.100143,150.373804,468.256500,149.293769,468.708540,148.325580Q477.931380,148.306400,487.154200,148.287160Q487.187110,167.697010,487.218900,187.106980C487.226100,192.150860,487.165300,197.195700,487.254900,202.237980C487.280360,203.670180,486.998900,204.153360,485.444900,204.117140C480.470140,204.001270,475.490180,204.123400,470.514060,204.041770C469.154840,204.019460,468.712480,204.329770,468.739670,205.764770C468.833900,210.740510,468.729670,215.719820,468.806120,220.696170C468.827060,222.058800,468.485440,222.518760,467.057880,222.494730C462.015500,222.409890,456.969980,222.511510,451.927510,222.429440C450.534990,222.406800,450.133270,222.789620,450.150590,224.195090C450.220230,229.834930,450.162680,235.476340,450.152150,241.117180Q414.343620,241.135930,378.535100,241.145610C378.144383,241.111093,377.757664,241.040747,377.379820,240.935460Z" fill="rgb(247,211,173)" stroke="none" stroke-width="1"/><path id="enlIHxUABDG36" d="M468.672890,111.235930C468.643580,116.811930,468.544560,122.388930,468.626890,127.963310C468.651990,129.662230,468.121530,130.066970,466.497890,130.033430C461.055370,129.921050,455.609640,129.964430,450.165130,129.948140C449.616506,129.186727,449.385557,128.241772,449.521130,127.313140Q449.500400,111.413620,449.520590,95.514140C449.389930,94.585069,449.621015,93.641296,450.166130,92.877690Q459.313620,92.846250,468.461130,92.814470Q468.506440,100.942000,468.556770,109.070150C468.562000,109.792290,468.632560,110.514000,468.672890,111.235930Z" fill="rgb(252,252,252)" stroke="none" stroke-width="1"/><path id="enlIHxUABDG37" d="M339.012340,74.131650C338.427340,74.786800,337.647820,74.517850,336.952340,74.521160C332.114150,74.544160,327.275150,74.577500,322.437920,74.505580C321.057420,74.485040,320.737920,74.940860,320.585770,76.295180C320.035990,81.188180,320.350520,86.086430,320.302100,90.978980C320.286030,92.603450,319.744570,92.947660,318.237840,92.940980C306.573170,92.889510,294.908150,92.916980,283.243260,92.920430Q283.203610,74.364930,283.163890,55.808710C288.684950,55.804170,294.206100,55.812990,299.726890,55.775900C300.326530,55.771900,301.041820,56.126800,301.541390,55.453720C301.812636,54.775993,301.882347,54.034341,301.742140,53.317940C301.758140,42.435550,301.783300,31.552940,301.718930,20.670940C301.709930,19.148070,302.057630,18.656610,303.656350,18.692310C308.630530,18.803390,313.609700,18.786310,318.584820,18.698670C319.973540,18.674200,320.348920,19.030030,320.341090,20.439040C320.279530,31.520180,320.354470,42.602220,320.259380,53.682880C320.243830,55.494160,320.764080,55.871140,322.474840,55.837260C327.980050,55.728260,333.488920,55.803550,338.996380,55.807780Q339.004400,64.969710,339.012340,74.131650Z" fill="rgb(247,212,173)" stroke="none" stroke-width="1"/><path id="enlIHxUABDG38" d="M319.846550,241.109440L320.244610,241.110240C320.726129,241.750352,320.950410,242.547613,320.873250,243.344890Q320.907180,250.272830,320.870820,257.200890C320.972923,257.997059,320.745206,258.800371,320.240480,259.424520L320.043620,259.436580L319.846790,259.423580Q319.846670,250.266120,319.846550,241.109440Z" fill="rgb(7,8,8)" stroke="none" stroke-width="1"/><path id="enlIHxUABDG39" d="M431.406500,37.074550L450.182340,37.073890C450.174510,42.711080,450.128880,48.348670,450.188960,53.985140C450.201800,55.190220,449.877360,55.487860,448.673520,55.590280C443.374870,56.041070,438.071090,55.720890,432.773720,55.876280C431.559530,55.911890,431.394270,55.428970,431.401150,54.384280C431.439210,48.614600,431.411610,42.844500,431.406500,37.074550Z" fill="rgb(247,212,173)" stroke="none" stroke-width="1"/><path id="enlIHxUABDG40" d="M320.240480,259.424470Q320.242550,250.267340,320.244630,241.110240C326.355630,240.942700,332.466630,240.928040,338.577500,241.119190C339.060487,241.757679,339.284253,242.555150,339.203930,243.351700Q339.238730,250.274500,339.201930,257.197380C339.306295,257.992511,339.082446,258.795864,338.581930,259.422450Z" fill="rgb(10,11,12)" stroke="none" stroke-width="1"/><path id="enlIHxUABDG41" d="M342.562260,241.134370Q349.734180,240.873370,356.906150,241.133160C357.342850,244.863810,357.048080,248.607790,357.076800,252.344670C357.243394,254.699652,357.185651,257.065141,356.904350,259.409190Q349.732910,259.416570,342.561470,259.423960C342.033569,258.735375,341.807067,257.862338,341.933620,257.003960Q341.899460,250.282490,341.931770,243.560960C341.822120,242.701118,342.047917,241.832083,342.562260,241.134370Z" fill="rgb(7,7,9)" stroke="none" stroke-width="1"/><path id="enlIHxUABDG42" d="M342.562260,241.134370Q342.561880,250.279530,342.561480,259.424370Q340.571660,259.423370,338.581910,259.422860Q338.579770,250.270650,338.577480,241.119210Z" fill="rgb(7,8,8)" stroke="none" stroke-width="1"/><path id="enlIHxUABDG43" d="M356.904350,259.409190Q356.905280,250.271190,356.906170,241.133190L357.306260,241.134400C357.306320,246.547470,357.318340,251.960570,357.291460,257.373510C357.288070,258.056720,357.602000,258.842000,356.904350,259.409190Z" fill="rgb(7,8,8)" stroke="none" stroke-width="1"/><path id="enlIHxUABDG44" d="M468.708570,148.325550C468.716860,160.138430,468.709570,171.951390,468.758170,183.764130C468.762910,184.916540,468.508640,185.306750,467.274170,185.446860C462.369170,186.003590,457.459390,185.641290,452.554560,185.675610C450.994870,185.686520,450.412240,185.981950,450.463980,187.716970C450.606390,192.491050,450.471100,197.272760,450.541300,202.050070C450.559960,203.320210,450.251780,203.733240,448.911120,203.730910Q413.273240,203.669350,377.635220,203.731270C376.319220,203.733560,375.985450,203.369710,376.006220,202.083730C376.082310,197.373000,376.034980,192.660290,376.036890,187.948320C376.037890,185.459600,376.123420,185.374220,378.603510,185.372730C395.404400,185.362600,412.205510,185.309620,429.005880,185.400420C431.068100,185.411560,431.498720,184.855420,431.442590,182.903950C431.291940,177.665320,431.378820,172.419830,431.371380,167.177080C430.906419,166.366468,430.702829,165.432160,430.788380,164.501590C430.782730,159.993660,430.773380,155.485700,430.796190,150.977850C430.636856,150.051658,430.866070,149.100731,431.429890,148.348850Z" fill="rgb(7,7,9)" stroke="none" stroke-width="1"/><path id="enlIHxUABDG45" d="M376.042650,129.948260C370.271150,129.982550,364.499290,129.990540,358.728430,130.070440C357.360620,130.089370,357.448350,129.186850,357.431050,128.351610C357.340250,123.971750,357.244840,119.591380,357.222530,115.210820C357.187370,108.307680,357.251530,101.403760,357.171610,94.501350C357.155270,93.092100,357.534810,92.703010,358.931550,92.730350C364.634370,92.842030,370.339430,92.838860,376.043670,92.877990C376.580229,93.646928,376.805557,94.590588,376.674290,95.518990Q376.693910,111.414210,376.673770,127.309400C376.809894,128.237420,376.583925,129.182249,376.042650,129.948260Z" fill="rgb(11,12,13)" stroke="none" stroke-width="1"/><path id="enlIHxUABDG46" d="M450.166150,92.877650Q450.165640,111.412910,450.165150,129.948150C444.394350,129.982470,438.623150,129.990260,432.853010,130.070600C431.481170,130.089690,431.576880,129.180450,431.559200,128.350040C431.465910,123.970780,431.369200,119.590950,431.346820,115.210960C431.311540,108.308610,431.376350,101.405510,431.297910,94.503870C431.281910,93.099060,431.655340,92.702580,433.055910,92.730130C438.758100,92.842300,444.462550,92.838620,450.166150,92.877650Z" fill="rgb(11,12,13)" stroke="none" stroke-width="1"/><path id="enlIHxUABDG47" d="M376.042650,129.948260Q376.043160,111.413210,376.043650,92.878060C381.475230,92.862400,386.908250,92.911770,392.337540,92.791590C393.964310,92.755590,394.356760,93.329040,394.356900,94.824690C394.357900,104.624690,394.419840,114.424810,394.477610,124.224780C394.485790,125.613930,394.531030,127.006690,394.648490,128.390200C394.747800,129.559940,394.408870,130.038710,393.131850,130.022020C387.436120,129.947560,381.739170,129.964410,376.042650,129.948260Z" fill="rgb(252,252,252)" stroke="none" stroke-width="1"/><path id="enlIHxUABDG48" d="M431.429830,148.348860Q431.400610,157.762970,431.371360,167.177060C425.948230,167.153470,420.525060,167.137060,415.102040,167.098220C414.315400,167.092590,413.529510,166.979220,412.742870,166.915310C412.749440,161.207840,412.775680,155.500690,412.745650,149.793830C412.740280,148.770640,412.870440,148.237690,414.114170,148.255620C419.885320,148.338820,425.657810,148.326790,431.429830,148.348860Z" fill="rgb(12,12,12)" stroke="none" stroke-width="1"/></g><g id="enlIHxUABDG49"><path id="enlIHxUABDG50" d="M74.522180,175.864420C74.220045,176.604422,74.137398,177.415776,74.284120,178.201500C74.414250,195.241500,74.533000,212.281590,74.736780,229.320720C74.757480,231.051720,74.347260,231.592370,72.553560,231.553410C67.452300,231.442610,62.345820,231.593020,57.242770,231.529930C55.987560,231.514430,55.712450,231.864300,55.729180,233.071820C55.799920,238.176620,55.725910,243.283340,55.784540,248.388460C55.797750,249.538680,55.612300,249.971660,54.302950,249.964730Q37.198750,249.874280,20.093950,249.965360C18.695320,249.973080,18.465420,249.487570,18.479410,248.257690C18.536710,243.218860,18.463410,238.178480,18.531410,233.139910C18.548410,231.883180,18.269190,231.448520,16.920580,231.471220C11.883420,231.556040,6.843330,231.460980,1.805830,231.535140C0.491830,231.554490,-0.002360,231.328540,-0.000010,229.848610Q0.070910,185.090250,0.004990,140.331720C0.003240,139.015490,0.363550,138.691200,1.645840,138.711330C6.484340,138.787330,11.326070,138.678030,16.163700,138.777960C17.760950,138.810960,18.233100,138.378390,18.411320,136.729190C18.953450,131.712480,18.487890,126.696070,18.669550,121.684050C18.716550,120.386780,19.096290,120.066050,20.362080,120.083220C25.930010,120.158910,31.499450,120.123060,37.068330,120.127640C37.153440,120.224850,37.238550,120.322070,37.325220,120.418370C37.674300,121.353218,37.796882,122.357482,37.682920,123.348850Q37.698450,138.562490,37.688090,153.776140C37.688020,154.173880,37.692090,154.571980,37.670390,154.969140C37.550720,157.161200,37.100680,157.639570,34.925480,157.741360C31.679670,157.893260,28.431610,157.758160,25.184570,157.761900C23.726398,157.775059,22.271627,157.905072,20.834230,158.150690C20.432783,158.170546,20.056213,158.351108,19.789372,158.651691C19.522531,158.952274,19.387869,159.347589,19.415730,159.748560C19.392040,160.345100,19.383530,160.941150,19.383490,161.537560Q19.382100,185.103800,19.382860,208.670040C19.382860,208.868920,19.381980,209.067800,19.383760,209.266660C19.409520,212.140840,19.478190,212.217780,22.455910,212.219460Q37.269200,212.227780,52.082500,212.218970C55.035430,212.216910,55.117900,212.140160,55.120870,209.237480C55.131180,199.161350,55.117320,189.085190,55.133870,179.009070C55.135700,177.898490,54.957470,176.738140,55.675960,175.736070C56.286063,175.335703,57.013070,175.152115,57.740110,175.214820Q65.032890,175.159400,72.325780,175.214040C73.117995,175.096396,73.921747,175.334397,74.522180,175.864420Z" fill="rgb(12,12,12)" stroke="none" stroke-width="1"/><path id="enlIHxUABDG51" d="M74.522180,175.864420L55.752000,175.840910C54.657250,175.616540,54.779900,174.680810,54.768540,173.953990Q54.654060,166.624200,54.764890,159.293140C54.651816,158.484872,55.009391,157.682853,55.686180,157.226740C56.578264,156.962309,57.513656,156.875973,58.439070,156.972650Q83.209760,156.961650,107.980430,156.968520C108.577150,156.968580,109.173720,156.968730,109.770160,157.006520C110.788600,157.071060,111.296450,157.496370,111.286870,158.625220C111.240180,164.130370,111.283270,169.636050,111.261320,175.141540C111.238661,175.338173,111.174485,175.527748,111.073040,175.697710C110.836083,175.798902,110.586616,175.867830,110.331320,175.902650Q92.426720,175.894460,74.522180,175.864420Z" fill="rgb(7,7,9)" stroke="none" stroke-width="1"/><path id="enlIHxUABDG52" d="M37.068340,120.127640C37.061260,114.763390,37.101170,109.398430,37.020340,104.035300C36.993850,102.278680,37.717860,101.716110,39.378020,101.720840Q65.397770,101.794960,91.417690,101.776410C92.604980,101.775150,92.802340,102.179220,92.792420,103.240780C92.739720,108.869570,92.760030,114.499060,92.755020,120.128300C92.654670,120.214930,92.554300,120.301560,92.454850,120.389800C91.521288,120.739203,90.518278,120.862666,89.527850,120.750090Q64.897270,120.763610,40.266690,120.748510C39.156470,120.747750,37.992100,120.915810,37.038070,120.096960Z" fill="rgb(12,12,12)" stroke="none" stroke-width="1"/><path id="enlIHxUABDG53" d="M111.073000,175.697720C111.072190,170.335090,111.010110,164.971340,111.107120,159.610480C111.137050,157.956690,110.645820,157.491820,108.994010,157.497010C91.254270,157.552810,73.514300,157.531840,55.774390,157.531910C55.869620,156.608170,56.636180,156.655910,57.251530,156.563850C58.108729,156.477070,58.971181,156.453933,59.831800,156.494630Q83.284510,156.492250,106.737200,156.492630C107.465650,156.492570,108.193670,156.491700,108.922320,156.452940C109.326440,156.489351,109.725764,156.343769,110.011628,156.055810C110.297491,155.767850,110.440152,155.367473,110.400790,154.963630C110.468890,150.325900,110.449730,145.688140,110.411430,141.050270C110.399930,139.656510,109.468810,139.479210,108.391670,139.471410C104.549200,139.443580,100.706670,139.466890,96.864190,139.459180C96.334190,139.458120,95.803970,139.465960,95.274260,139.449100C92.638580,139.365220,92.172720,138.928900,92.147870,136.250200C92.105430,131.678420,92.124660,127.106130,92.142150,122.534070C92.036724,121.669096,92.267532,120.796669,92.786900,120.096990L92.754980,120.128330C98.429130,120.123540,104.103770,120.157020,109.776980,120.083620C111.000380,120.067790,111.317980,120.394180,111.300790,121.609960C111.229790,126.624270,111.262790,131.640200,111.280500,136.655450C111.283030,137.371450,111.411170,138.086920,111.481160,138.802630C112.029911,139.642119,112.248950,140.654836,112.096160,141.646060C112.112630,145.287390,112.094760,148.928820,112.104740,152.570180C112.116160,156.738660,111.822620,156.492590,115.937350,156.501290C119.644270,156.509130,123.351350,156.485940,127.058100,156.514580C127.967740,156.521580,128.934470,156.391710,129.683030,157.131060C129.212500,157.860450,128.493590,157.448740,127.912630,157.453300C122.958980,157.492120,118.003190,157.548840,113.051970,157.432410C111.497800,157.395870,111.218460,157.884160,111.245040,159.310680C111.334900,164.131680,111.289440,168.955470,111.267090,173.778060C111.264190,174.415840,111.487830,175.095060,111.073000,175.697720Z" fill="rgb(12,12,12)" stroke="none" stroke-width="1"/><path id="enlIHxUABDG54" d="M129.683100,157.131000C124.386810,157.130340,119.089260,157.063800,113.794960,157.166200C112.038790,157.200200,111.379910,156.803200,111.428960,154.891670C111.566470,149.531720,111.479560,144.166010,111.481200,138.802570C117.164540,138.782050,122.848000,138.776570,128.531060,138.725250C129.409310,138.717320,129.821160,138.840100,129.805720,139.886970C129.720850,145.634350,129.715660,151.382900,129.683100,157.131000Z" fill="rgb(8,8,9)" stroke="none" stroke-width="1"/><path id="enlIHxUABDG55" d="M92.786890,120.097000C92.781250,125.735460,92.841100,131.375240,92.727950,137.011540C92.696210,138.591200,93.233870,138.841930,94.641950,138.818170C99.548540,138.735340,104.459030,138.857240,109.364450,138.744750C110.924860,138.708970,111.211240,139.219620,111.186120,140.647750C111.099840,145.555090,111.090070,150.466180,111.190660,155.372990C111.221490,156.876230,110.797960,157.235550,109.319310,157.230070Q83.552910,157.134560,57.786080,157.187400C57.123870,157.188060,56.332440,156.791670,55.774330,157.531980C55.227406,163.622398,55.219903,169.749241,55.751910,175.840980C55.754310,187.576240,55.730060,199.311640,55.793240,211.046560C55.801030,212.494640,55.496340,212.932260,53.967180,212.922300Q37.163570,212.812740,20.358930,212.914680C18.964700,212.921750,18.600120,212.542530,18.603930,211.153950Q18.675150,185.296790,18.607440,159.439350C18.604060,158.054690,18.875530,157.606350,20.405180,157.428940C25.332260,156.857540,30.258680,157.369200,35.180180,157.165940C36.581620,157.108060,37.101110,156.858240,37.090940,155.302360C37.014290,143.567640,37.042480,131.832240,37.037940,120.097050Z" fill="rgb(247,186,79)" stroke="none" stroke-width="1"/></g></g><script><![CDATA[!function(t,n){"object"==typeof exports&&"undefined"!=typeof module?module.exports=n():"function"==typeof define&&define.amd?define(n):(t="undefined"!=typeof globalThis?globalThis:t||self).__SVGATOR_PLAYER__=n()}(this,(function(){"use strict";function t(n){return(t="function"==typeof Symbol&&"symbol"==typeof Symbol.iterator?function(t){return typeof t}:function(t){return t&&"function"==typeof Symbol&&t.constructor===Symbol&&t!==Symbol.prototype?"symbol":typeof t})(n)}function n(t,n){if(!(t instanceof n))throw new TypeError("Cannot call a class as a function")}function r(t,n){for(var r=0;r<n.length;r++){var e=n[r];e.enumerable=e.enumerable||!1,e.configurable=!0,"value"in e&&(e.writable=!0),Object.defineProperty(t,e.key,e)}}function e(t,n,e){return n&&r(t.prototype,n),e&&r(t,e),t}function i(t){return(i=Object.setPrototypeOf?Object.getPrototypeOf:function(t){return t.__proto__||Object.getPrototypeOf(t)})(t)}function o(t,n){return(o=Object.setPrototypeOf||function(t,n){return t.__proto__=n,t})(t,n)}function u(t,n){return!n||"object"!=typeof n&&"function"!=typeof n?function(t){if(void 0===t)throw new ReferenceError("this hasn't been initialised - super() hasn't been called");return t}(t):n}function a(t){var n=function(){if("undefined"==typeof Reflect||!Reflect.construct)return!1;if(Reflect.construct.sham)return!1;if("function"==typeof Proxy)return!0;try{return Boolean.prototype.valueOf.call(Reflect.construct(Boolean,[],(function(){}))),!0}catch(t){return!1}}();return function(){var r,e=i(t);if(n){var o=i(this).constructor;r=Reflect.construct(e,arguments,o)}else r=e.apply(this,arguments);return u(this,r)}}function l(t,n,r){return(l="undefined"!=typeof Reflect&&Reflect.get?Reflect.get:function(t,n,r){var e=function(t,n){for(;!Object.prototype.hasOwnProperty.call(t,n)&&null!==(t=i(t)););return t}(t,n);if(e){var o=Object.getOwnPropertyDescriptor(e,n);return o.get?o.get.call(r):o.value}})(t,n,r||t)}var f=Math.abs;function s(t){return t}function c(t,n,r){var e=1-r;return 3*r*e*(t*e+n*r)+r*r*r}function h(){var t=arguments.length>0&&void 0!==arguments[0]?arguments[0]:0,n=arguments.length>1&&void 0!==arguments[1]?arguments[1]:0,r=arguments.length>2&&void 0!==arguments[2]?arguments[2]:1,e=arguments.length>3&&void 0!==arguments[3]?arguments[3]:1;return t<0||t>1||r<0||r>1?null:f(t-n)<=1e-5&&f(r-e)<=1e-5?s:function(i){if(i<=0)return t>0?i*n/t:0===n&&r>0?i*e/r:0;if(i>=1)return r<1?1+(i-1)*(e-1)/(r-1):1===r&&t<1?1+(i-1)*(n-1)/(t-1):1;for(var o,u=0,a=1;u<a;){var l=c(t,r,o=(u+a)/2);if(f(i-l)<1e-5)break;l<i?u=o:a=o}return c(n,e,o)}}function v(){return 1}function y(t){return 1===t?1:0}function d(){var t=arguments.length>0&&void 0!==arguments[0]?arguments[0]:1,n=arguments.length>1&&void 0!==arguments[1]?arguments[1]:0;if(1===t){if(0===n)return y;if(1===n)return v}var r=1/t;return function(t){return t>=1?1:(t+=n*r)-t%r}}function g(t){var n=arguments.length>1&&void 0!==arguments[1]?arguments[1]:2;if(Number.isInteger(t))return t;var r=Math.pow(10,n);return Math.round(t*r)/r}var p=Math.PI/180;function m(t,n,r){return t>=.5?r:n}function b(t,n,r){return 0===t||n===r?n:t*(r-n)+n}function w(t,n,r){var e=b(t,n,r);return e<=0?0:e}function x(t,n,r){return 0===t?n:1===t?r:{x:b(t,n.x,r.x),y:b(t,n.y,r.y)}}function k(t,n,r){var e=function(t,n,r){return Math.round(b(t,n,r))}(t,n,r);return e<=0?0:e>=255?255:e}function A(t,n,r){return 0===t?n:1===t?r:{r:k(t,n.r,r.r),g:k(t,n.g,r.g),b:k(t,n.b,r.b),a:b(t,null==n.a?1:n.a,null==r.a?1:r.a)}}function _(t,n,r){if(0===t)return n;if(1===t)return r;var e=n.length;if(e!==r.length)return m(t,n,r);for(var i=[],o=0;o<e;o++)i.push(A(t,n[o],r[o]));return i}function S(t,n){for(var r=[],e=0;e<t;e++)r.push(n);return r}function O(t,n){if(--n<=0)return t;var r=(t=Object.assign([],t)).length;do{for(var e=0;e<r;e++)t.push(t[e])}while(--n>0);return t}var M,j=function(){function t(r){n(this,t),this.list=r,this.length=r.length}return e(t,[{key:"setAttribute",value:function(t,n){for(var r=this.list,e=0;e<this.length;e++)r[e].setAttribute(t,n)}},{key:"removeAttribute",value:function(t){for(var n=this.list,r=0;r<this.length;r++)n[r].removeAttribute(t)}},{key:"style",value:function(t,n){for(var r=this.list,e=0;e<this.length;e++)r[e].style[t]=n}}]),t}(),F=/-./g,P=function(t,n){return n.toUpperCase()};function B(t){return"function"==typeof t?t:m}function I(t){return t?"function"==typeof t?t:Array.isArray(t)?function(t){var n=arguments.length>1&&void 0!==arguments[1]?arguments[1]:s;if(!Array.isArray(t))return n;switch(t.length){case 1:return d(t[0])||n;case 2:return d(t[0],t[1])||n;case 4:return h(t[0],t[1],t[2],t[3])||n}return n}(t,null):function(t,n){var r=arguments.length>2&&void 0!==arguments[2]?arguments[2]:s;switch(t){case"linear":return s;case"steps":return d(n.steps||1,n.jump||0)||r;case"bezier":case"cubic-bezier":return h(n.x1||0,n.y1||0,n.x2||0,n.y2||0)||r}return r}(t.type,t.value,null):null}function R(t,n,r){var e=arguments.length>3&&void 0!==arguments[3]&&arguments[3],i=n.length-1;if(t<=n[0].t)return e?[0,0,n[0].v]:n[0].v;if(t>=n[i].t)return e?[i,1,n[i].v]:n[i].v;var o,u=n[0],a=null;for(o=1;o<=i;o++){if(!(t>n[o].t)){a=n[o];break}u=n[o]}return null==a?e?[i,1,n[i].v]:n[i].v:u.t===a.t?e?[o,1,a.v]:a.v:(t=(t-u.t)/(a.t-u.t),u.e&&(t=u.e(t)),e?[o,t,r(t,u.v,a.v)]:r(t,u.v,a.v))}function q(t,n){var r=arguments.length>2&&void 0!==arguments[2]?arguments[2]:null;return t&&t.length?"function"!=typeof n?null:("function"!=typeof r&&(r=null),function(e){var i=R(e,t,n);return null!=i&&r&&(i=r(i)),i}):null}function E(t,n){return t.t-n.t}function T(n,r,e,i,o){var u,a="@"===e[0],l="#"===e[0],f=M[e],s=m;switch(a?(u=e.substr(1),e=u.replace(F,P)):l&&(e=e.substr(1)),t(f)){case"function":if(s=f(i,o,R,I,e,a,r,n),l)return s;break;case"string":s=q(i,B(f));break;case"object":if((s=q(i,B(f.i),f.f))&&"function"==typeof f.u)return f.u(r,s,e,a,n)}return s?function(t,n,r){var e=arguments.length>3&&void 0!==arguments[3]&&arguments[3];if(e)return t instanceof j?function(e){return t.style(n,r(e))}:function(e){return t.style[n]=r(e)};if(Array.isArray(n)){var i=n.length;return function(e){var o=r(e);if(null==o)for(var u=0;u<i;u++)t[u].removeAttribute(n);else for(var a=0;a<i;a++)t[a].setAttribute(n,o)}}return function(e){var i=r(e);null==i?t.removeAttribute(n):t.setAttribute(n,i)}}(r,e,s,a):null}function N(n,r,e,i){if(!i||"object"!==t(i))return null;var o=null,u=null;return Array.isArray(i)?u=function(t){if(!t||!t.length)return null;for(var n=0;n<t.length;n++)t[n].e&&(t[n].e=I(t[n].e));return t.sort(E)}(i):(u=i.keys,o=i.data||null),u?T(n,r,e,u,o):null}function C(t,n,r){if(!r)return null;var e=[];for(var i in r)if(r.hasOwnProperty(i)){var o=N(t,n,i,r[i]);o&&e.push(o)}return e.length?e:null}function z(t,n){if(!n.duration||n.duration<0)return null;var r=function(t,n){if(!n)return null;var r=[];if(Array.isArray(n))for(var e=n.length,i=0;i<e;i++){var o=n[i];if(2===o.length){var u=null;if("string"==typeof o[0])u=t.getElementById(o[0]);else if(Array.isArray(o[0])){u=[];for(var a=0;a<o[0].length;a++)if("string"==typeof o[0][a]){var l=t.getElementById(o[0][a]);l&&u.push(l)}u=u.length?1===u.length?u[0]:new j(u):null}if(u){var f=C(t,u,o[1]);f&&(r=r.concat(f))}}}else for(var s in n)if(n.hasOwnProperty(s)){var c=t.getElementById(s);if(c){var h=C(t,c,n[s]);h&&(r=r.concat(h))}}return r.length?r:null}(t,n.elements);return r?function(t,n){var r=arguments.length>2&&void 0!==arguments[2]?arguments[2]:1/0,e=arguments.length>3&&void 0!==arguments[3]?arguments[3]:1,i=arguments.length>4&&void 0!==arguments[4]&&arguments[4],o=arguments.length>5&&void 0!==arguments[5]?arguments[5]:1,u=t.length,a=e>0?n:0;i&&r%2==0&&(a=n-a);var l=null;return function(f,s){var c=f%n,h=1+(f-c)/n;s*=e,i&&h%2==0&&(s=-s);var v=!1;if(h>r)c=a,v=!0,-1===o&&(c=e>0?0:n);else if(s<0&&(c=n-c),c===l)return!1;l=c;for(var y=0;y<u;y++)t[y](c);return v}}(r,n.duration,n.iterations||1/0,n.direction||1,!!n.alternate,n.fill||1):null}var L=function(){function t(r,e){var i=arguments.length>2&&void 0!==arguments[2]?arguments[2]:{};n(this,t),this._id=0,this._running=!1,this._rollingBack=!1,this._animations=r,this.duration=e.duration,this.alternate=e.alternate,this.fill=e.fill,this.iterations=e.iterations,this.direction=i.direction||1,this.speed=i.speed||1,this.fps=i.fps||100,this.offset=i.offset||0,this.rollbackStartOffset=0}return e(t,[{key:"_rollback",value:function(){var t=this,n=1/0,r=null;this.rollbackStartOffset=this.offset,this._rollingBack||(this._rollingBack=!0,this._running=!0);this._id=window.requestAnimationFrame((function e(i){if(t._rollingBack){null==r&&(r=i);var o=i-r,u=t.rollbackStartOffset-o,a=Math.round(u*t.speed);if(a>t.duration&&n!=1/0){var l=!!t.alternate&&a/t.duration%2>1,f=a%t.duration;a=(f+=l?t.duration:0)||t.duration}var s=t.fps?1e3/t.fps:0,c=Math.max(0,a);if(c<n-s){t.offset=c,n=c;for(var h=t._animations,v=h.length,y=0;y<v;y++)h[y](c,t.direction)}var d=!1;if(t.iterations>0&&-1===t.fill){var g=t.iterations*t.duration,p=g==a;a=p?0:a,t.offset=p?0:t.offset,d=a>g}a>0&&t.offset>=a&&!d?t._id=window.requestAnimationFrame(e):t.stop()}}))}},{key:"_start",value:function(){var t=this,n=arguments.length>0&&void 0!==arguments[0]?arguments[0]:0,r=-1/0,e=null,i={},o=function o(u){t._running=!0,null==e&&(e=u);var a=Math.round((u-e+n)*t.speed),l=t.fps?1e3/t.fps:0;if(a>r+l&&!t._rollingBack){t.offset=a,r=a;for(var f=t._animations,s=f.length,c=0,h=0;h<s;h++)i[h]?c++:(i[h]=f[h](a,t.direction),i[h]&&c++);if(c===s)return void t._stop()}t._id=window.requestAnimationFrame(o)};this._id=window.requestAnimationFrame(o)}},{key:"_stop",value:function(){this._id&&window.cancelAnimationFrame(this._id),this._running=!1,this._rollingBack=!1}},{key:"play",value:function(){!this._rollingBack&&this._running||(this._rollingBack=!1,this.rollbackStartOffset>this.duration&&(this.offset=this.rollbackStartOffset-(this.rollbackStartOffset-this.offset)%this.duration,this.rollbackStartOffset=0),this._start(this.offset))}},{key:"stop",value:function(){this._stop(),this.offset=0,this.rollbackStartOffset=0;var t=this.direction,n=this._animations;window.requestAnimationFrame((function(){for(var r=0;r<n.length;r++)n[r](0,t)}))}},{key:"reachedToEnd",value:function(){return this.iterations>0&&this.offset>=this.iterations*this.duration}},{key:"restart",value:function(){this._stop(),this.offset=0,this._start()}},{key:"pause",value:function(){this._stop()}},{key:"reverse",value:function(){this.direction=-this.direction}}],[{key:"build",value:function(n,r){return(n=function(t,n){if(M=n,!t||!t.root||!Array.isArray(t.animations))return null;for(var r=document.getElementsByTagName("svg"),e=!1,i=0;i<r.length;i++)if(r[i].id===t.root&&!r[i].svgatorAnimation){(e=r[i]).svgatorAnimation=!0;break}if(!e)return null;var o=t.animations.map((function(t){return z(e,t)})).filter((function(t){return!!t}));return o.length?{element:e,animations:o,animationSettings:t.animationSettings,options:t.options||void 0}:null}(n,r))?{el:n.element,options:n.options||{},player:new t(n.animations,n.animationSettings,n.options)}:null}}]),t}();!function(){for(var t=0,n=["ms","moz","webkit","o"],r=0;r<n.length&&!window.requestAnimationFrame;++r)window.requestAnimationFrame=window[n[r]+"RequestAnimationFrame"],window.cancelAnimationFrame=window[n[r]+"CancelAnimationFrame"]||window[n[r]+"CancelRequestAnimationFrame"];window.requestAnimationFrame||(window.requestAnimationFrame=function(n){var r=Date.now(),e=Math.max(0,16-(r-t)),i=window.setTimeout((function(){n(r+e)}),e);return t=r+e,i},window.cancelAnimationFrame=window.clearTimeout)}();var D=/\.0+$/g;function Q(t){return Number.isInteger(t)?t+"":t.toFixed(6).replace(D,"")}function U(t){var n=arguments.length>1&&void 0!==arguments[1]?arguments[1]:" ";return t&&t.length?t.map(Q).join(n):""}function V(t){return t?null==t.a||t.a>=1?"rgb("+t.r+","+t.g+","+t.b+")":"rgba("+t.r+","+t.g+","+t.b+","+t.a+")":"transparent"}var $={f:null,i:function(t,n,r){return 0===t?n:1===t?r:{x:w(t,n.x,r.x),y:w(t,n.y,r.y)}},u:function(t,n){return function(r){var e=n(r);t.setAttribute("rx",Q(e.x)),t.setAttribute("ry",Q(e.y))}}},G={f:null,i:function(t,n,r){return 0===t?n:1===t?r:{width:w(t,n.width,r.width),height:w(t,n.height,r.height)}},u:function(t,n){return function(r){var e=n(r);t.setAttribute("width",Q(e.width)),t.setAttribute("height",Q(e.height))}}},H=Math.sin,Y=Math.cos,Z=Math.acos,J=Math.asin,K=Math.tan,W=Math.atan2,X=Math.PI/180,tt=180/Math.PI,nt=Math.sqrt,rt=function(){function t(){var r=arguments.length>0&&void 0!==arguments[0]?arguments[0]:1,e=arguments.length>1&&void 0!==arguments[1]?arguments[1]:0,i=arguments.length>2&&void 0!==arguments[2]?arguments[2]:0,o=arguments.length>3&&void 0!==arguments[3]?arguments[3]:1,u=arguments.length>4&&void 0!==arguments[4]?arguments[4]:0,a=arguments.length>5&&void 0!==arguments[5]?arguments[5]:0;n(this,t),this.m=[r,e,i,o,u,a],this.i=null,this.w=null,this.s=null}return e(t,[{key:"determinant",get:function(){var t=this.m;return t[0]*t[3]-t[1]*t[2]}},{key:"isIdentity",get:function(){if(null===this.i){var t=this.m;this.i=1===t[0]&&0===t[1]&&0===t[2]&&1===t[3]&&0===t[4]&&0===t[5]}return this.i}},{key:"point",value:function(t,n){var r=this.m;return{x:r[0]*t+r[2]*n+r[4],y:r[1]*t+r[3]*n+r[5]}}},{key:"translateSelf",value:function(){var t=arguments.length>0&&void 0!==arguments[0]?arguments[0]:0,n=arguments.length>1&&void 0!==arguments[1]?arguments[1]:0;if(!t&&!n)return this;var r=this.m;return r[4]+=r[0]*t+r[2]*n,r[5]+=r[1]*t+r[3]*n,this.w=this.s=this.i=null,this}},{key:"rotateSelf",value:function(){var t=arguments.length>0&&void 0!==arguments[0]?arguments[0]:0;if(t%=360){var n=H(t*=X),r=Y(t),e=this.m,i=e[0],o=e[1];e[0]=i*r+e[2]*n,e[1]=o*r+e[3]*n,e[2]=e[2]*r-i*n,e[3]=e[3]*r-o*n,this.w=this.s=this.i=null}return this}},{key:"scaleSelf",value:function(){var t=arguments.length>0&&void 0!==arguments[0]?arguments[0]:1,n=arguments.length>1&&void 0!==arguments[1]?arguments[1]:1;if(1!==t||1!==n){var r=this.m;r[0]*=t,r[1]*=t,r[2]*=n,r[3]*=n,this.w=this.s=this.i=null}return this}},{key:"skewSelf",value:function(t,n){if(n%=360,(t%=360)||n){var r=this.m,e=r[0],i=r[1],o=r[2],u=r[3];t&&(t=K(t*X),r[2]+=e*t,r[3]+=i*t),n&&(n=K(n*X),r[0]+=o*n,r[1]+=u*n),this.w=this.s=this.i=null}return this}},{key:"resetSelf",value:function(){var t=arguments.length>0&&void 0!==arguments[0]?arguments[0]:1,n=arguments.length>1&&void 0!==arguments[1]?arguments[1]:0,r=arguments.length>2&&void 0!==arguments[2]?arguments[2]:0,e=arguments.length>3&&void 0!==arguments[3]?arguments[3]:1,i=arguments.length>4&&void 0!==arguments[4]?arguments[4]:0,o=arguments.length>5&&void 0!==arguments[5]?arguments[5]:0,u=this.m;return u[0]=t,u[1]=n,u[2]=r,u[3]=e,u[4]=i,u[5]=o,this.w=this.s=this.i=null,this}},{key:"recomposeSelf",value:function(){var t=arguments.length>0&&void 0!==arguments[0]?arguments[0]:null,n=arguments.length>1&&void 0!==arguments[1]?arguments[1]:null,r=arguments.length>2&&void 0!==arguments[2]?arguments[2]:null,e=arguments.length>3&&void 0!==arguments[3]?arguments[3]:null,i=arguments.length>4&&void 0!==arguments[4]?arguments[4]:null;return this.isIdentity||this.resetSelf(),t&&(t.x||t.y)&&this.translateSelf(t.x,t.y),n&&this.rotateSelf(n),r&&(r.x&&this.skewSelf(r.x,0),r.y&&this.skewSelf(0,r.y)),!e||1===e.x&&1===e.y||this.scaleSelf(e.x,e.y),i&&(i.x||i.y)&&this.translateSelf(i.x,i.y),this}},{key:"decompose",value:function(){var t=arguments.length>0&&void 0!==arguments[0]?arguments[0]:0,n=arguments.length>1&&void 0!==arguments[1]?arguments[1]:0,r=this.m,e=r[0]*r[0]+r[1]*r[1],i=[[r[0],r[1]],[r[2],r[3]]],o=nt(e);if(0===o)return{origin:{x:r[4],y:r[5]},translate:{x:t,y:n},scale:{x:0,y:0},skew:{x:0,y:0},rotate:0};i[0][0]/=o,i[0][1]/=o;var u=r[0]*r[3]-r[1]*r[2]<0;u&&(o=-o);var a=i[0][0]*i[1][0]+i[0][1]*i[1][1];i[1][0]-=i[0][0]*a,i[1][1]-=i[0][1]*a;var l=nt(i[1][0]*i[1][0]+i[1][1]*i[1][1]);if(0===l)return{origin:{x:r[4],y:r[5]},translate:{x:t,y:n},scale:{x:o,y:0},skew:{x:0,y:0},rotate:0};i[1][0]/=l,i[1][1]/=l,a/=l;var f=0;return i[1][1]<0?(f=Z(i[1][1])*tt,i[0][1]<0&&(f=360-f)):f=J(i[0][1])*tt,u&&(f=-f),a=W(a,nt(i[0][0]*i[0][0]+i[0][1]*i[0][1]))*tt,u&&(a=-a),{origin:{x:r[4],y:r[5]},translate:{x:t,y:n},scale:{x:o,y:l},skew:{x:a,y:0},rotate:f}}},{key:"toString",value:function(){return null===this.s&&(this.s="matrix("+this.m.map(it).join(" ")+")"),this.s}}]),t}(),et=/\.0+$/;function it(t){return Number.isInteger(t)?t:t.toFixed(14).replace(et,"")}function ot(t,n,r){return t+(n-t)*r}function ut(t,n,r){var e=arguments.length>3&&void 0!==arguments[3]&&arguments[3],i={x:ot(t.x,n.x,r),y:ot(t.y,n.y,r)};return e&&(i.a=at(t,n)),i}function at(t,n){return Math.atan2(n.y-t.y,n.x-t.x)}Object.freeze({M:2,L:2,Z:0,H:1,V:1,C:6,Q:4,T:2,S:4,A:7});var lt={},ft=null;function st(n){var r=function(){if(ft)return ft;if("object"!==("undefined"==typeof document?"undefined":t(document)))return{};var n=document.createElementNS("http://www.w3.org/2000/svg","svg");return n.style.position="absolute",n.style.opacity="0.01",n.style.zIndex="-9999",n.style.left="-9999px",n.style.width="1px",n.style.height="1px",ft={svg:n}}().svg;if(!r)return function(t){return null};var e=document.createElementNS(r.namespaceURI,"path");e.setAttributeNS(null,"d",n),e.setAttributeNS(null,"fill","none"),e.setAttributeNS(null,"stroke","none"),r.appendChild(e);var i=e.getTotalLength();return function(t){var n=e.getPointAtLength(i*t);return{x:n.x,y:n.y}}}function ct(t){return lt[t]?lt[t]:lt[t]=st(t)}function ht(t,n,r,e){if(!t||!e)return!1;var i=["M",t.x,t.y];if(n&&r&&(i.push("C"),i.push(n.x),i.push(n.y),i.push(r.x),i.push(r.y)),n?!r:r){var o=n||r;i.push("Q"),i.push(o.x),i.push(o.y)}return n||r||i.push("L"),i.push(e.x),i.push(e.y),i.join(" ")}function vt(t,n,r,e){var i=arguments.length>4&&void 0!==arguments[4]?arguments[4]:1,o=ht(t,n,r,e),u=ct(o);try{return u(i)}catch(t){return null}}function yt(t,n,r,e){var i=1-e;return i*i*t+2*i*e*n+e*e*r}function dt(t,n,r,e){return 2*(1-e)*(n-t)+2*e*(r-n)}function gt(t,n,r,e){var i=arguments.length>4&&void 0!==arguments[4]&&arguments[4],o=vt(t,n,null,r,e);return o||(o={x:yt(t.x,n.x,r.x,e),y:yt(t.y,n.y,r.y,e)}),i&&(o.a=pt(t,n,r,e)),o}function pt(t,n,r,e){return Math.atan2(dt(t.y,n.y,r.y,e),dt(t.x,n.x,r.x,e))}function mt(t,n,r,e,i){var o=i*i;return i*o*(e-t+3*(n-r))+3*o*(t+r-2*n)+3*i*(n-t)+t}function bt(t,n,r,e,i){var o=1-i;return 3*(o*o*(n-t)+2*o*i*(r-n)+i*i*(e-r))}function wt(t,n,r,e,i){var o=arguments.length>5&&void 0!==arguments[5]&&arguments[5],u=vt(t,n,r,e,i);return u||(u={x:mt(t.x,n.x,r.x,e.x,i),y:mt(t.y,n.y,r.y,e.y,i)}),o&&(u.a=xt(t,n,r,e,i)),u}function xt(t,n,r,e,i){return Math.atan2(bt(t.y,n.y,r.y,e.y,i),bt(t.x,n.x,r.x,e.x,i))}function kt(t,n,r){var e=arguments.length>3&&void 0!==arguments[3]&&arguments[3];if(_t(n)){if(St(r))return gt(n,r.start,r,t,e)}else if(_t(r)){if(n.end)return gt(n,n.end,r,t,e)}else{if(n.end)return r.start?wt(n,n.end,r.start,r,t,e):gt(n,n.end,r,t,e);if(r.start)return gt(n,r.start,r,t,e)}return ut(n,r,t,e)}function At(t,n,r){var e=kt(t,n,r,!0);return e.a=function(t){var n=arguments.length>1&&void 0!==arguments[1]&&arguments[1];return n?t+Math.PI:t}(e.a)/p,e}function _t(t){return!t.type||"corner"===t.type}function St(t){return null!=t.start&&!_t(t)}var Ot=new rt;var Mt={f:Q,i:b},jt={f:Q,i:function(t,n,r){var e=b(t,n,r);return e<=0?0:e>=1?1:e}};function Ft(t,n,r,e,i,o,u,a){return n=function(t,n,r){for(var e,i,o,u=t.length-1,a={},l=0;l<=u;l++)(e=t[l]).e&&(e.e=n(e.e)),e.v&&"g"===(i=e.v).t&&i.r&&(o=r.getElementById(i.r))&&(a[i.r]=o.querySelectorAll("stop"));return a}(t,e,a),function(e){var i,o=r(e,t,Pt);return o?"c"===o.t?V(o.v):"g"===o.t?(n[o.r]&&function(t,n){for(var r=0,e=t.length;r<e;r++)t[r].setAttribute("stop-color",V(n[r]))}(n[o.r],o.v),(i=o.r)?"url(#"+i+")":"none"):"none":"none"}}function Pt(t,n,r){if(0===t)return n;if(1===t)return r;if(n&&r){var e=n.t;if(e===r.t)switch(n.t){case"c":return{t:e,v:A(t,n.v,r.v)};case"g":if(n.r===r.r)return{t:e,v:_(t,n.v,r.v),r:n.r}}}return m(t,n,r)}var Bt={fill:Ft,"fill-opacity":jt,stroke:Ft,"stroke-opacity":jt,"stroke-width":Mt,"stroke-dashoffset":{f:Q,i:b},"stroke-dasharray":{f:function(t){var n=arguments.length>1&&void 0!==arguments[1]?arguments[1]:" ";return t&&t.length>0&&(t=t.map((function(t){return Math.floor(1e4*t)/1e4}))),U(t,n)},i:function(t,n,r){var e,i,o,u=n.length,a=r.length;if(u!==a)if(0===u)n=S(u=a,0);else if(0===a)a=u,r=S(u,0);else{var l=(o=(e=u)*(i=a)/function(t,n){for(var r;n;)r=n,n=t%n,t=r;return t||1}(e,i))<0?-o:o;n=O(n,Math.floor(l/u)),r=O(r,Math.floor(l/a)),u=a=l}for(var f=[],s=0;s<u;s++)f.push(g(w(t,n[s],r[s]),6));return f}},opacity:jt,transform:function(n,r,e,i){if(!(n=function(n,r){if(!n||"object"!==t(n))return null;var e=!1;for(var i in n)n.hasOwnProperty(i)&&(n[i]&&n[i].length?(n[i].forEach((function(t){t.e&&(t.e=r(t.e))})),e=!0):delete n[i]);return e?n:null}(n,i)))return null;var o=function(t,i,o){var u=arguments.length>3&&void 0!==arguments[3]?arguments[3]:null;return n[t]?e(i,n[t],o):r&&r[t]?r[t]:u};return r&&r.a&&n.o?function(t){var r=e(t,n.o,At);return Ot.recomposeSelf(r,o("r",t,b,0)+r.a,o("k",t,x),o("s",t,x),o("t",t,x)).toString()}:function(t){return Ot.recomposeSelf(o("o",t,kt,null),o("r",t,b,0),o("k",t,x),o("s",t,x),o("t",t,x)).toString()}},r:Mt,"#size":G,"#radius":$,_:function(t,n){if(Array.isArray(t))for(var r=0;r<t.length;r++)this[t[r]]=n;else this[t]=n}};return function(t){!function(t,n){if("function"!=typeof n&&null!==n)throw new TypeError("Super expression must either be null or a function");t.prototype=Object.create(n&&n.prototype,{constructor:{value:t,writable:!0,configurable:!0}}),n&&o(t,n)}(u,t);var r=a(u);function u(){return n(this,u),r.apply(this,arguments)}return e(u,null,[{key:"build",value:function(t){var n=l(i(u),"build",this).call(this,t,Bt);n.el,n.options;var r=n.player;return function(t,n,r){t.play()}(r),r}}]),u}(L)}));
__SVGATOR_PLAYER__.build({"root":"enlIHxUABDG1","animations":[{"duration":3000,"direction":1,"iterations":0,"fill":1,"alternate":false,"speed":1,"elements":{"enlIHxUABDG15":{"transform":{"data":{"t":{"x":-217.231170655,"y":-258.447113035}},"keys":{"o":[{"t":0,"v":{"x":217.23115921020508,"y":258.4471206665039,"type":"corner"}},{"t":500,"v":{"x":217.231170655,"y":272.447113035,"type":"corner"}},{"t":1500,"v":{"x":217.231170655,"y":258.45122192499997,"type":"corner"}}]}}},"enlIHxUABDG24":{"transform":{"data":{"o":{"x":375.8996887207031,"y":129.95404195785522,"type":"corner"},"t":{"x":-375.8996887207031,"y":-129.95404195785522}},"keys":{"r":[{"t":200,"v":0},{"t":600,"v":-5},{"t":1100,"v":5},{"t":1500,"v":0}]}}},"enlIHxUABDG49":{"transform":{"data":{"t":{"x":-64.90305984020233,"y":-175.84313201904297}},"keys":{"o":[{"t":0,"v":{"x":64.90305984020233,"y":175.84313201904297,"type":"corner"}},{"t":500,"v":{"x":64.90305984020233,"y":188.97801207404376,"type":"corner"}},{"t":1500,"v":{"x":64.90305984020233,"y":175.84232207404375,"type":"corner"}}]}}}}}],"options":{"start":"load","hover":"freeze","click":"freeze","scroll":25,"font":"embed","exportedIds":"unique","svgFormat":"animated","title":"Doge"},"animationSettings":{"duration":3000,"direction":1,"iterations":0,"fill":1,"alternate":false,"speed":1}})]]></script></svg>